<svg width="352" height="496" viewBox="0 0 352 496" fill="none" xmlns="http://www.w3.org/2000/svg">
<path d="M100.571 496C86.7429 496 74.9048 491.143 65.0571 481.43C55.2095 471.717 50.2857 460.04 50.2857 446.4H150.857V345.34C107.276 339.14 71.2381 319.817 42.7429 287.37C14.2476 254.923 0 217 0 173.6C0 125.24 17.0762 84.2167 51.2286 50.53C85.381 16.8433 126.971 0 176 0C225.029 0 266.619 16.8433 300.771 50.53C334.924 84.2167 352 125.24 352 173.6C352 217 337.752 254.923 309.257 287.37C280.762 319.817 244.724 339.14 201.143 345.34V446.4H301.714C301.714 460.04 296.79 471.717 286.943 481.43C277.095 491.143 265.257 496 251.429 496H100.571ZM176 297.6C210.781 297.6 240.429 285.51 264.943 261.33C289.457 237.15 301.714 207.907 301.714 173.6C301.714 139.293 289.457 110.05 264.943 85.87C240.429 61.69 210.781 49.6 176 49.6C141.219 49.6 111.571 61.69 87.0571 85.87C62.5429 110.05 50.2857 139.293 50.2857 173.6C50.2857 207.907 62.5429 237.15 87.0571 261.33C111.571 285.51 141.219 297.6 176 297.6ZM176 223.2C162.171 223.2 150.333 218.343 140.486 208.63C130.638 198.917 125.714 187.24 125.714 173.6C125.714 159.96 130.638 148.283 140.486 138.57C150.333 128.857 162.171 124 176 124C189.829 124 201.667 128.857 211.514 138.57C221.362 148.283 226.286 159.96 226.286 173.6C226.286 187.24 221.362 198.917 211.514 208.63C201.667 218.343 189.829 223.2 176 223.2Z" fill="white"/>
</svg>
