<svg width="460" height="415" viewBox="0 0 460 415" fill="none" xmlns="http://www.w3.org/2000/svg">
<path d="M207 415V368.889H391V205.194C391 160.236 375.379 122.098 344.137 90.7812C312.896 59.4641 274.85 43.8056 230 43.8056C185.15 43.8056 147.104 59.4641 115.862 90.7812C84.6208 122.098 69 160.236 69 205.194V345.833H46C33.35 345.833 22.5208 341.318 13.5125 332.288C4.50417 323.258 0 312.403 0 299.722V253.611C0 245.542 2.0125 237.953 6.0375 230.844C10.0625 223.735 15.7167 218.067 23 213.84L24.725 183.292C27.7917 157.162 35.3625 132.954 47.4375 110.667C59.5125 88.3796 74.6542 68.9745 92.8625 52.4514C111.071 35.9282 131.962 23.0556 155.537 13.8333C179.112 4.61111 203.933 0 230 0C256.067 0 280.792 4.61111 304.175 13.8333C327.558 23.0556 348.45 35.8322 366.85 52.1632C385.25 68.4942 400.392 87.8032 412.275 110.09C424.158 132.377 431.825 156.586 435.275 182.715L437 212.688C444.283 216.146 449.937 221.333 453.962 228.25C457.987 235.167 460 242.468 460 250.153V303.181C460 310.866 457.987 318.167 453.962 325.083C449.937 332 444.283 337.188 437 340.646V368.889C437 381.569 432.496 392.425 423.487 401.455C414.479 410.485 403.65 415 391 415H207ZM161 253.611C154.483 253.611 149.021 251.402 144.613 246.983C140.204 242.564 138 237.088 138 230.556C138 224.023 140.204 218.547 144.613 214.128C149.021 209.709 154.483 207.5 161 207.5C167.517 207.5 172.979 209.709 177.387 214.128C181.796 218.547 184 224.023 184 230.556C184 237.088 181.796 242.564 177.387 246.983C172.979 251.402 167.517 253.611 161 253.611ZM299 253.611C292.483 253.611 287.021 251.402 282.612 246.983C278.204 242.564 276 237.088 276 230.556C276 224.023 278.204 218.547 282.612 214.128C287.021 209.709 292.483 207.5 299 207.5C305.517 207.5 310.979 209.709 315.387 214.128C319.796 218.547 322 224.023 322 230.556C322 237.088 319.796 242.564 315.387 246.983C310.979 251.402 305.517 253.611 299 253.611ZM92.575 217.875C89.8917 177.144 102.158 142.176 129.375 112.972C156.592 83.7685 190.517 69.1667 231.15 69.1667C265.267 69.1667 295.262 80.022 321.137 101.733C347.012 123.443 362.633 151.206 368 185.021C333.117 184.637 301.012 175.222 271.688 156.778C242.363 138.333 219.842 113.356 204.125 81.8472C197.992 112.588 185.054 139.966 165.312 163.983C145.571 187.999 121.325 205.963 92.575 217.875Z" fill="white"/>
</svg>
